<?xml version="1.0" encoding="UTF-8"?>
<svg version="1.1" xmlns="http://www.w3.org/2000/svg" width="153" height="159">
<path d="M0 0 C1.69815486 0.00171339 3.39631236 0.0016431 5.09446716 -0.00012207 C8.64258344 0.00152614 12.19006405 0.0201331 15.73803711 0.05175781 C20.2729249 0.0914643 24.80698276 0.09579637 29.34201145 0.08829498 C32.84489976 0.08521752 36.34760347 0.09737283 39.8504467 0.11442566 C41.52209248 0.12142751 43.19375916 0.12458363 44.86541939 0.12373352 C47.20566364 0.12554257 49.54493505 0.1470161 51.88500977 0.17382812 C52.56728134 0.17089752 53.24955292 0.16796692 53.95249939 0.16494751 C59.8081041 0.26783438 64.35558328 1.75684962 68.93359375 5.46875 C72.55863723 10.03361957 72.92519972 14.51535273 72.94335938 20.17871094 C72.95825409 21.29928894 72.95825409 21.29928894 72.97344971 22.44250488 C73.00256495 24.90441632 73.01627574 27.36606996 73.02734375 29.828125 C73.0388583 31.54819743 73.05037362 33.26826986 73.06188965 34.98834229 C73.08287396 38.59282622 73.09458216 42.19722143 73.1015625 45.80175781 C73.11251775 50.40296416 73.16055326 55.00298251 73.21750641 59.60381699 C73.25490254 63.15736224 73.26517788 66.71062555 73.26823425 70.26435089 C73.27425753 71.95954118 73.29021382 73.65472827 73.31660461 75.34972382 C73.54677604 91.27080273 73.54677604 91.27080273 68.39880371 97.956604 C64.0779405 101.93581549 60.61414177 102.99737363 54.77563477 103.2800293 C54.12077622 103.31326388 53.46591768 103.34649847 52.79121494 103.38074017 C45.57962472 103.71085781 38.36555768 103.69589379 31.1484375 103.61328125 C30.10463016 103.6028457 30.10463016 103.6028457 29.03973579 103.59219933 C25.37575055 103.55528604 21.71192682 103.51153215 18.0480957 103.46166992 C14.28592471 103.41182218 10.52397047 103.38596706 6.76154232 103.36523914 C3.84017829 103.34485563 0.91922636 103.30699066 -2.00189018 103.2643795 C-3.38961707 103.2471305 -4.77744135 103.23636539 -6.16526985 103.23243141 C-19.74619781 103.1825288 -19.74619781 103.1825288 -24.37890625 98.59375 C-28.58810917 93.82238904 -30.11555434 89.99093768 -30.01000977 83.55053711 C-30.01716507 82.77886703 -30.02432037 82.00719696 -30.0316925 81.21214294 C-30.0484943 78.6811766 -30.02923066 76.15200292 -30.0078125 73.62109375 C-30.00864191 71.85185093 -30.011104 70.0826082 -30.01512146 68.31336975 C-30.0179735 64.61386798 -30.00333526 60.91497362 -29.97583008 57.21557617 C-29.94172305 52.48202935 -29.94777932 47.74956632 -29.96649265 43.01596737 C-29.97707771 39.36555502 -29.96811162 35.71539341 -29.95310783 32.06500435 C-29.94793828 30.31995959 -29.94839289 28.57488852 -29.95465279 26.82984734 C-29.96012439 24.38851773 -29.93967064 21.94872288 -29.91235352 19.50756836 C-29.91887939 18.79207825 -29.92540527 18.07658813 -29.93212891 17.3394165 C-29.82124505 11.48986511 -27.73404216 8.14775695 -23.84925842 3.93493652 C-16.86513833 -1.10420489 -8.2122627 -0.08782448 0 0 Z " fill="#FCFDFD" transform="translate(65.37890625,23.40625)"/>
<path d="M0 0 C0.90492187 0.02320313 1.80984375 0.04640625 2.7421875 0.0703125 C3.65226562 0.08835938 4.56234375 0.10640625 5.5 0.125 C6.19867188 0.14820313 6.89734375 0.17140625 7.6171875 0.1953125 C7.6171875 1.1853125 7.6171875 2.1753125 7.6171875 3.1953125 C8.9371875 3.8553125 10.2571875 4.5153125 11.6171875 5.1953125 C11.67546308 8.7577433 11.71087635 12.32005069 11.7421875 15.8828125 C11.75894531 16.89021484 11.77570313 17.89761719 11.79296875 18.93554688 C11.80263672 20.40024414 11.80263672 20.40024414 11.8125 21.89453125 C11.82821045 23.23777466 11.82821045 23.23777466 11.84423828 24.6081543 C11.59422206 27.45699507 10.79735262 29.60425793 9.6171875 32.1953125 C8.9571875 32.1953125 8.2971875 32.1953125 7.6171875 32.1953125 C7.6171875 32.8553125 7.6171875 33.5153125 7.6171875 34.1953125 C5.82682292 35.171875 4.03645833 36.1484375 2.24609375 37.125 C0.45100435 38.10941274 0.45100435 38.10941274 -0.3828125 40.1953125 C-2.02644384 40.91690674 -3.69331636 41.58882671 -5.3828125 42.1953125 C-5.43722906 44.09082272 -5.47579285 45.9867917 -5.5078125 47.8828125 C-5.53101562 48.93855469 -5.55421875 49.99429688 -5.578125 51.08203125 C-5.36687904 54.44929193 -4.86160483 57.71652017 -2.3828125 60.1953125 C0.44135132 60.32194341 3.23013543 60.38051798 6.0546875 60.3828125 C7.23901367 60.40118164 7.23901367 60.40118164 8.44726562 60.41992188 C10.50526185 60.42518529 12.56280759 60.31737535 14.6171875 60.1953125 C16.97671844 57.83578156 17.10860163 56.41635633 17.6171875 53.1953125 C17.0190625 53.0921875 16.4209375 52.9890625 15.8046875 52.8828125 C13.22028328 52.07057117 12.31510102 51.28971681 10.6171875 49.1953125 C9.22571304 44.42930418 8.90923722 39.69837222 11.1796875 35.1953125 C13.98996009 31.73651547 15.24439854 30.86804926 19.6171875 30.1953125 C23.47100628 30.21763191 26.72208494 30.68062853 30.1171875 32.6328125 C31.6171875 34.1953125 31.6171875 34.1953125 31.6171875 36.1953125 C32.6071875 36.5253125 33.5971875 36.8553125 34.6171875 37.1953125 C35.24141341 46.12521094 35.24141341 46.12521094 32.8671875 50.1953125 C30.6171875 52.1953125 30.6171875 52.1953125 28.4921875 53.0078125 C26.06349005 54.54598755 26.11554341 55.51115052 25.4921875 58.2578125 C25.30269531 59.32708984 25.30269531 59.32708984 25.109375 60.41796875 C24.86574219 61.29775391 24.86574219 61.29775391 24.6171875 62.1953125 C23.6271875 62.6903125 23.6271875 62.6903125 22.6171875 63.1953125 C22.2871875 64.1853125 21.9571875 65.1753125 21.6171875 66.1953125 C18.6471875 66.6903125 18.6471875 66.6903125 15.6171875 67.1953125 C15.6171875 67.8553125 15.6171875 68.5153125 15.6171875 69.1953125 C12.76197969 69.30408232 9.91098189 69.38297716 7.0546875 69.4453125 C6.25482422 69.47882813 5.45496094 69.51234375 4.63085938 69.546875 C-2.18886912 69.65821751 -5.8450462 67.82010685 -11.3203125 63.7578125 C-12.82096438 61.5509715 -12.59371607 59.79645654 -12.3828125 57.1953125 C-13.0428125 57.1953125 -13.7028125 57.1953125 -14.3828125 57.1953125 C-14.7128125 51.5853125 -15.0428125 45.9753125 -15.3828125 40.1953125 C-17.3628125 39.8653125 -19.3428125 39.5353125 -21.3828125 39.1953125 C-23.4296875 37.92578125 -23.4296875 37.92578125 -25.1328125 36.3828125 C-25.70515625 35.88136719 -26.2775 35.37992188 -26.8671875 34.86328125 C-30.1707414 31.2276691 -30.62756679 28.18123293 -30.578125 23.3359375 C-30.57167969 22.22089844 -30.56523438 21.10585938 -30.55859375 19.95703125 C-30.54183594 18.79816406 -30.52507813 17.63929687 -30.5078125 16.4453125 C-30.49878906 15.27097656 -30.48976562 14.09664062 -30.48046875 12.88671875 C-30.45691313 9.98937714 -30.42401902 7.09244809 -30.3828125 4.1953125 C-26.05327168 1.91145568 -23.26484648 1.95521247 -18.3828125 2.1953125 C-17.3828125 3.1953125 -17.3828125 3.1953125 -17.3203125 5.7578125 C-17.3409375 6.5621875 -17.3615625 7.3665625 -17.3828125 8.1953125 C-19.3628125 8.5253125 -21.3428125 8.8553125 -23.3828125 9.1953125 C-23.7128125 14.1453125 -24.0428125 19.0953125 -24.3828125 24.1953125 C-23.7228125 24.1953125 -23.0628125 24.1953125 -22.3828125 24.1953125 C-19.3828125 28.57992788 -19.3828125 28.57992788 -19.3828125 31.1953125 C-18.5784375 31.3396875 -17.7740625 31.4840625 -16.9453125 31.6328125 C-14.3828125 32.1953125 -14.3828125 32.1953125 -13.3828125 33.1953125 C-8.94703608 33.40653995 -4.75936324 32.89556062 -0.3828125 32.1953125 C-0.0734375 31.3909375 0.2359375 30.5865625 0.5546875 29.7578125 C1.6171875 27.1953125 1.6171875 27.1953125 2.6171875 26.1953125 C2.69038371 23.49876396 2.70961287 20.82839792 2.6796875 18.1328125 C2.67517578 17.37419922 2.67066406 16.61558594 2.66601562 15.83398438 C2.6541943 13.95439379 2.63625828 12.07484351 2.6171875 10.1953125 C-0.3528125 9.7003125 -0.3528125 9.7003125 -3.3828125 9.1953125 C-4.0078125 5.8203125 -4.0078125 5.8203125 -4.3828125 2.1953125 C-2.3828125 0.1953125 -2.3828125 0.1953125 0 0 Z " fill="#9ECDA6" transform="translate(85.3828125,39.8046875)"/>
<path d="M0 0 C1.5 1.5625 1.5 1.5625 1.5 3.5625 C2.49 3.8925 3.48 4.2225 4.5 4.5625 C5.12422591 13.49239844 5.12422591 13.49239844 2.75 17.5625 C0.5 19.5625 0.5 19.5625 -1.625 20.375 C-4.05369745 21.91317505 -4.00164409 22.87833802 -4.625 25.625 C-4.81449219 26.69427734 -4.81449219 26.69427734 -5.0078125 27.78515625 C-5.17023438 28.37167969 -5.33265625 28.95820312 -5.5 29.5625 C-6.49 30.0575 -6.49 30.0575 -7.5 30.5625 C-7.83 31.5525 -8.16 32.5425 -8.5 33.5625 C-11.47 34.0575 -11.47 34.0575 -14.5 34.5625 C-14.5 35.2225 -14.5 35.8825 -14.5 36.5625 C-17.39640118 36.64370751 -20.29050912 36.70309421 -23.1875 36.75 C-24.41243164 36.78770508 -24.41243164 36.78770508 -25.66210938 36.82617188 C-30.45341841 36.88436591 -33.66406712 36.74874334 -37.5 33.5625 C-40.38022381 30.72636125 -41.41599262 29.27908298 -41.890625 25.23046875 C-41.84421875 24.08191406 -41.7978125 22.93335937 -41.75 21.75 C-41.71390625 20.58855469 -41.6778125 19.42710938 -41.640625 18.23046875 C-41.59421875 17.35003906 -41.5478125 16.46960938 -41.5 15.5625 C-40.18 14.9025 -38.86 14.2425 -37.5 13.5625 C-37.5 16.8625 -37.5 20.1625 -37.5 23.5625 C-36.84 23.5625 -36.18 23.5625 -35.5 23.5625 C-35.14035156 24.21476562 -34.78070313 24.86703125 -34.41015625 25.5390625 C-32.50662282 27.98956374 -32.50662282 27.98956374 -28.55859375 28.0234375 C-27.0179834 28.01547569 -25.47736543 27.98606007 -23.9375 27.9375 C-23.15697266 27.93621094 -22.37644531 27.93492188 -21.57226562 27.93359375 C-17.06029793 28.02183812 -17.06029793 28.02183812 -13.5 25.5625 C-12.85232207 22.99188689 -12.85232207 22.99188689 -12.5 20.5625 C-13.098125 20.459375 -13.69625 20.35625 -14.3125 20.25 C-16.89690422 19.43775867 -17.80208648 18.65690431 -19.5 16.5625 C-20.89147446 11.79649168 -21.20795028 7.06555972 -18.9375 2.5625 C-14.02749631 -3.48058147 -6.6529884 -3.82546833 0 0 Z " fill="#6FA9BC" transform="translate(115.5,72.4375)"/>
<path d="M0 0 C1 1 1 1 1.0625 3.5625 C1.041875 4.366875 1.02125 5.17125 1 6 C-0.98 6.33 -2.96 6.66 -5 7 C-5.33 11.95 -5.66 16.9 -6 22 C-5.34 22 -4.68 22 -4 22 C-1 26.38461538 -1 26.38461538 -1 29 C-0.195625 29.144375 0.60875 29.28875 1.4375 29.4375 C4 30 4 30 5 31 C8.52637472 31.15672777 11.61905851 31.04028969 15 30 C14.25 31.9375 14.25 31.9375 13 34 C11.66923011 34.34342449 10.33568021 34.67619874 9 35 C7.24577228 36.97670607 7.24577228 36.97670607 6 39 C-0.76965747 38.10965956 -5.46814824 36.2474073 -10 31 C-12.07697071 27.64913506 -12.23519171 25.04878728 -12.1953125 21.140625 C-12.18886719 20.02558594 -12.18242188 18.91054688 -12.17578125 17.76171875 C-12.15902344 16.60285156 -12.14226563 15.44398437 -12.125 14.25 C-12.11597656 13.07566406 -12.10695312 11.90132812 -12.09765625 10.69140625 C-12.07410063 7.79406464 -12.04120652 4.89713559 -12 2 C-7.67045918 -0.28385682 -4.88203398 -0.24010003 0 0 Z " fill="#DF8476" transform="translate(67,42)"/>
<path d="M0 0 C2.08268593 -0.08126087 4.16628658 -0.13930839 6.25 -0.1875 C7.99023438 -0.23970703 7.99023438 -0.23970703 9.765625 -0.29296875 C13.22268407 0.02017066 14.51565563 0.65709108 17 3 C16.67 4.32 16.34 5.64 16 7 C15.39671875 6.98839844 14.7934375 6.97679688 14.171875 6.96484375 C13.37265625 6.95582031 12.5734375 6.94679688 11.75 6.9375 C10.96109375 6.92589844 10.1721875 6.91429688 9.359375 6.90234375 C7.09308998 6.99614694 5.1711105 7.36758937 3 8 C3.99 10.31 4.98 12.62 6 15 C8.64 15 11.28 15 14 15 C12.25 19.875 12.25 19.875 10 21 C9.59270772 23.32156597 9.25561323 25.6568787 9 28 C6.06828528 25.45068285 6.06828528 25.45068285 5.6875 22.9375 C5.460625 22.298125 5.23375 21.65875 5 21 C2.07085835 19.82917122 2.07085835 19.82917122 -1 19 C-3.86175698 16.13824302 -3.76519972 13.55270313 -4.11328125 9.62109375 C-3.93612079 5.52196729 -2.36304595 3.29394284 0 0 Z " fill="#52B4A2" transform="translate(99,72)"/>
<path d="M0 0 C0.90492187 0.02320313 1.80984375 0.04640625 2.7421875 0.0703125 C4.10730469 0.09738281 4.10730469 0.09738281 5.5 0.125 C6.19867188 0.14820313 6.89734375 0.17140625 7.6171875 0.1953125 C7.6171875 1.1853125 7.6171875 2.1753125 7.6171875 3.1953125 C8.9371875 3.8553125 10.2571875 4.5153125 11.6171875 5.1953125 C11.6171875 12.4553125 11.6171875 19.7153125 11.6171875 27.1953125 C11.2871875 27.1953125 10.9571875 27.1953125 10.6171875 27.1953125 C10.6171875 24.8853125 10.6171875 22.5753125 10.6171875 20.1953125 C9.8334375 20.6903125 9.0496875 21.1853125 8.2421875 21.6953125 C5.6171875 23.1953125 5.6171875 23.1953125 3.6171875 23.1953125 C3.2871875 18.9053125 2.9571875 14.6153125 2.6171875 10.1953125 C-0.3528125 9.7003125 -0.3528125 9.7003125 -3.3828125 9.1953125 C-4.0078125 5.8203125 -4.0078125 5.8203125 -4.3828125 2.1953125 C-2.3828125 0.1953125 -2.3828125 0.1953125 0 0 Z " fill="#F0CFAB" transform="translate(85.3828125,39.8046875)"/>
<path d="M0 0 C4 4.75 4 4.75 4 7 C4.804375 7.144375 5.60875 7.28875 6.4375 7.4375 C9 8 9 8 10 9 C13.52637472 9.15672777 16.61905851 9.04028969 20 8 C19.25 9.9375 19.25 9.9375 18 12 C16.66923011 12.34342449 15.33568021 12.67619874 14 13 C12.24577228 14.97670607 12.24577228 14.97670607 11 17 C4.26700976 16.11448201 -0.58528517 14.34280828 -5 9 C-6.4375 5.625 -6.4375 5.625 -7 3 C-5.515 3.99 -5.515 3.99 -4 5 C-4 5.99 -4 6.98 -4 8 C-1.03 8.495 -1.03 8.495 2 9 C1.67 8.2575 1.34 7.515 1 6.75 C0 4 0 4 0 0 Z " fill="#EEC792" transform="translate(62,64)"/>
<path d="M0 0 C0.99386719 0.00902344 1.98773438 0.01804688 3.01171875 0.02734375 C4.15060547 0.04474609 4.15060547 0.04474609 5.3125 0.0625 C5.3125 0.7225 5.3125 1.3825 5.3125 2.0625 C5.9725 2.0625 6.6325 2.0625 7.3125 2.0625 C7.3125 3.3825 7.3125 4.7025 7.3125 6.0625 C6.6525 6.0625 5.9925 6.0625 5.3125 6.0625 C5.3125 6.7225 5.3125 7.3825 5.3125 8.0625 C3.3325 8.3925 1.3525 8.7225 -0.6875 9.0625 C-1.0175 13.6825 -1.3475 18.3025 -1.6875 23.0625 C-2.0175 23.0625 -2.3475 23.0625 -2.6875 23.0625 C-2.71435095 20.58326199 -2.73426547 18.1043116 -2.75 15.625 C-2.76256836 14.56442383 -2.76256836 14.56442383 -2.77539062 13.48242188 C-2.78403588 11.67556441 -2.73970011 9.86862397 -2.6875 8.0625 C-1.6875 7.0625 -1.6875 7.0625 1.375 7 C2.8290625 7.0309375 2.8290625 7.0309375 4.3125 7.0625 C3.9825 5.4125 3.6525 3.7625 3.3125 2.0625 C1.45625 2.0315625 1.45625 2.0315625 -0.4375 2 C-1.48164062 1.98259766 -1.48164062 1.98259766 -2.546875 1.96484375 C-5.02749176 2.00719744 -5.02749176 2.00719744 -8.6875 3.0625 C-8.6875 10.3225 -8.6875 17.5825 -8.6875 25.0625 C-9.0175 24.4025 -9.3475 23.7425 -9.6875 23.0625 C-10.3475 23.0625 -11.0075 23.0625 -11.6875 23.0625 C-11.77460289 19.95851022 -11.82792309 16.85483452 -11.875 13.75 C-11.90013672 12.86892578 -11.92527344 11.98785156 -11.95117188 11.08007812 C-11.96083984 10.23251953 -11.97050781 9.38496094 -11.98046875 8.51171875 C-11.9961792 7.73143311 -12.01188965 6.95114746 -12.02807617 6.1472168 C-11.5962812 3.50413633 -10.78722731 2.67821821 -8.6875 1.0625 C-5.53819107 0.01273036 -3.29935544 -0.03881595 0 0 Z " fill="#F8D3CC" transform="translate(63.6875,40.9375)"/>
<path d="M0 0 C0.33 0 0.66 0 1 0 C1.1546875 1.175625 1.1546875 1.175625 1.3125 2.375 C1.77595022 5.33045181 1.77595022 5.33045181 5 7 C7.05709596 7.24055468 7.05709596 7.24055468 9.1875 7.125 C10.445625 7.08375 11.70375 7.0425 13 7 C11.25 11.875 11.25 11.875 9 13 C8.59270772 15.32156597 8.25561323 17.6568787 8 20 C5.49962266 17.82575883 4.56371414 16.26954202 4 13 C3.071875 12.8453125 3.071875 12.8453125 2.125 12.6875 C0 12 0 12 -2 9 C-2.25 5.4375 -2.25 5.4375 -2 2 C-1.34 1.34 -0.68 0.68 0 0 Z " fill="#409E88" transform="translate(100,80)"/>
<path d="M0 0 C2.125 0.375 2.125 0.375 4 1 C3.01 1.66 2.02 2.32 1 3 C0.63441883 6.35503476 0.63441883 6.35503476 0.8125 10.125 C0.83957031 11.40632813 0.86664063 12.68765625 0.89453125 14.0078125 C0.94673828 15.48894531 0.94673828 15.48894531 1 17 C1.99 17 2.98 17 4 17 C4 17.66 4 18.32 4 19 C8.95 18.67 13.9 18.34 19 18 C19.33 16.35 19.66 14.7 20 13 C20.66 13 21.32 13 22 13 C22.36684975 17.5244802 22.36684975 17.5244802 20.73242188 19.64306641 C17.75206871 21.97745239 14.12498097 21.42946549 10.5 21.375 C9.34177734 21.39240234 9.34177734 21.39240234 8.16015625 21.41015625 C2.45860131 21.38051212 2.45860131 21.38051212 0.2980957 19.58789062 C-2.50252379 16.16204349 -2.16131988 12.13712405 -2.1875 7.875 C-2.20167969 6.82054688 -2.21585937 5.76609375 -2.23046875 4.6796875 C-2 2 -2 2 0 0 Z " fill="#C4E7E5" transform="translate(81,80)"/>
<path d="M0 0 C5.75 -0.125 5.75 -0.125 8 1 C9.99651809 1.20418935 11.99759821 1.36522296 14 1.5 C19.77777778 1.88888889 19.77777778 1.88888889 22 3 C22 3.66 22 4.32 22 5 C15.4 5 8.8 5 2 5 C1.34 3.35 0.68 1.7 0 0 Z M20 0 C20.99 0.495 20.99 0.495 22 1 C21.01 1.495 21.01 1.495 20 2 C20 1.34 20 0.68 20 0 Z " fill="#3B8D99" transform="translate(79,102)"/>
<path d="M0 0 C0.04241723 2.33294775 0.04092937 4.66702567 0 7 C-1 8 -1 8 -4.4375 8.25 C-5.613125 8.1675 -6.78875 8.085 -8 8 C-10 5 -10 5 -10 1 C-6.42181037 -1.33958553 -4.07775191 -0.9267618 0 0 Z " fill="#BDE4DD" transform="translate(112,79)"/>
<path d="M0 0 C2.53758041 0.63311865 4.13337373 1.60100779 5.94140625 3.484375 C5.94140625 4.144375 5.94140625 4.804375 5.94140625 5.484375 C6.93140625 5.814375 7.92140625 6.144375 8.94140625 6.484375 C9.02231596 8.10856245 9.0805562 9.73389245 9.12890625 11.359375 C9.18111328 12.71675781 9.18111328 12.71675781 9.234375 14.1015625 C9.13769531 14.88789062 9.04101562 15.67421875 8.94140625 16.484375 C7.95140625 17.144375 6.96140625 17.804375 5.94140625 18.484375 C6.60140625 15.514375 7.26140625 12.544375 7.94140625 9.484375 C5.96140625 9.814375 3.98140625 10.144375 1.94140625 10.484375 C1.96203125 11.45375 1.98265625 12.423125 2.00390625 13.421875 C1.94140625 16.484375 1.94140625 16.484375 0.94140625 17.484375 C-1.39156808 17.52530437 -3.725646 17.52679223 -6.05859375 17.484375 C-6.05859375 17.154375 -6.05859375 16.824375 -6.05859375 16.484375 C-4.07859375 16.154375 -2.09859375 15.824375 -0.05859375 15.484375 C0.27140625 13.174375 0.60140625 10.864375 0.94140625 8.484375 C0.28140625 8.154375 -0.37859375 7.824375 -1.05859375 7.484375 C0.59140625 7.484375 2.24140625 7.484375 3.94140625 7.484375 C3.59353917 5.50900755 3.59353917 5.50900755 2.94140625 3.484375 C0.50752872 2.26743624 -1.47698221 2.16477604 -4.18359375 1.921875 C-5.09367187 1.83808594 -6.00375 1.75429687 -6.94140625 1.66796875 C-7.64007813 1.60738281 -8.33875 1.54679687 -9.05859375 1.484375 C-5.60735563 -0.81645041 -4.00553998 -0.61964154 0 0 Z " fill="#76B5B0" transform="translate(111.05859375,70.515625)"/>
<path d="M0 0 C0.94875 0.04125 1.8975 0.0825 2.875 0.125 C2.875 0.785 2.875 1.445 2.875 2.125 C0.895 2.785 -1.085 3.445 -3.125 4.125 C-3.125 9.735 -3.125 15.345 -3.125 21.125 C-4.445 21.455 -5.765 21.785 -7.125 22.125 C-7.17907567 19.54138482 -7.218707 16.95890745 -7.25 14.375 C-7.26675781 13.64539062 -7.28351562 12.91578125 -7.30078125 12.1640625 C-7.33569605 8.3234345 -7.35574327 5.33851828 -5.125 2.125 C-3.125 0.125 -3.125 0.125 0 0 Z " fill="#DF715B" transform="translate(63.125,44.875)"/>
<path d="M0 0 C1.64630328 0.14042877 3.29204179 0.28749329 4.9375 0.4375 C6.31228516 0.55931641 6.31228516 0.55931641 7.71484375 0.68359375 C10 1 10 1 11 2 C11.3125 4.875 11.3125 4.875 11 8 C9 9.875 9 9.875 7 11 C6.79375 10.195625 6.5875 9.39125 6.375 8.5625 C5.92125 7.716875 5.4675 6.87125 5 6 C1.94727535 5.10169161 1.94727535 5.10169161 -1 5 C-0.67 3.35 -0.34 1.7 0 0 Z " fill="#EF9D5E" transform="translate(84,43)"/>
<path d="M0 0 C0.66 0 1.32 0 2 0 C2 3.3 2 6.6 2 10 C2.66 10 3.32 10 4 10 C3.34 12.64 2.68 15.28 2 18 C0.0234375 16.91015625 0.0234375 16.91015625 -2 15 C-2.4609375 11.93359375 -2.4609375 11.93359375 -2.375 8.4375 C-2.36210938 7.28121094 -2.34921875 6.12492187 -2.3359375 4.93359375 C-2 2 -2 2 0 0 Z " fill="#52C2B2" transform="translate(76,86)"/>
<path d="M0 0 C0.33 0 0.66 0 1 0 C1.10871967 2.54283234 1.18762401 5.08095088 1.25 7.625 C1.30027344 8.69427734 1.30027344 8.69427734 1.3515625 9.78515625 C1.44683312 14.97740496 0.49465456 17.92083026 -3 22 C-7.31841198 23.75935303 -11.34808846 24.54091995 -16 24 C-16.66 23.01 -17.32 22.02 -18 21 C-17.09636719 20.99742188 -16.19273438 20.99484375 -15.26171875 20.9921875 C-11.74578602 20.87691102 -8.45111824 20.69283813 -5 20 C-2.53025527 17.15899225 -2.53025527 17.15899225 -2 14 C-1.34 14 -0.68 14 0 14 C0 9.38 0 4.76 0 0 Z " fill="#E6E8C9" transform="translate(88,50)"/>
<path d="M0 0 C0.33 0 0.66 0 1 0 C1.04898438 0.95261719 1.09796875 1.90523437 1.1484375 2.88671875 C1.22320312 4.14097656 1.29796875 5.39523438 1.375 6.6875 C1.47941406 8.54955078 1.47941406 8.54955078 1.5859375 10.44921875 C1.96798408 13.72544839 2.74096486 15.99571697 4 19 C4 20.32 4 21.64 4 23 C1.125 22.8125 1.125 22.8125 -2 22 C-3.375 19.4375 -3.375 19.4375 -4 17 C-3.01 16.67 -2.02 16.34 -1 16 C-0.67 10.72 -0.34 5.44 0 0 Z " fill="#EE9967" transform="translate(60,50)"/>
<path d="M0 0 C0.33 0 0.66 0 1 0 C1 4.62 1 9.24 1 14 C-0.98 14.99 -2.96 15.98 -5 17 C-4.91253716 15.56138706 -4.80434652 14.12402492 -4.6875 12.6875 C-4.62949219 11.88699219 -4.57148437 11.08648437 -4.51171875 10.26171875 C-3.90930512 7.59914248 -2.9728524 6.80844803 -1 5 C-0.27802838 2.39388923 -0.27802838 2.39388923 0 0 Z " fill="#E3C67B" transform="translate(95,46)"/>
<path d="M0 0 C0.99773438 0.02320313 1.99546875 0.04640625 3.0234375 0.0703125 C4.52777344 0.09738281 4.52777344 0.09738281 6.0625 0.125 C6.83335938 0.14820313 7.60421875 0.17140625 8.3984375 0.1953125 C8.3984375 0.8553125 8.3984375 1.5153125 8.3984375 2.1953125 C9.0584375 2.1953125 9.7184375 2.1953125 10.3984375 2.1953125 C10.3984375 3.5153125 10.3984375 4.8353125 10.3984375 6.1953125 C9.7384375 6.1953125 9.0784375 6.1953125 8.3984375 6.1953125 C8.3984375 6.8553125 8.3984375 7.5153125 8.3984375 8.1953125 C6.4184375 8.5253125 4.4384375 8.8553125 2.3984375 9.1953125 C2.0684375 13.8153125 1.7384375 18.4353125 1.3984375 23.1953125 C1.0684375 23.1953125 0.7384375 23.1953125 0.3984375 23.1953125 C0.37158655 20.71607449 0.35167203 18.2371241 0.3359375 15.7578125 C0.32336914 14.69723633 0.32336914 14.69723633 0.31054688 13.61523438 C0.30190162 11.80837691 0.34623739 10.00143647 0.3984375 8.1953125 C1.3984375 7.1953125 1.3984375 7.1953125 4.4609375 7.1328125 C5.915 7.16375 5.915 7.16375 7.3984375 7.1953125 C7.0684375 5.5453125 6.7384375 3.8953125 6.3984375 2.1953125 C5.1403125 2.1953125 3.8821875 2.1953125 2.5859375 2.1953125 C0.19010417 2.1953125 -2.20572917 2.1953125 -4.6015625 2.1953125 C-2.6015625 0.1953125 -2.6015625 0.1953125 0 0 Z " fill="#F0C2B7" transform="translate(60.6015625,40.8046875)"/>
<path d="M0 0 C0.99 0.495 0.99 0.495 2 1 C2.40729228 3.32156597 2.74438677 5.6568787 3 8 C3.33 8 3.66 8 4 8 C4.03738281 8.89203125 4.07476562 9.7840625 4.11328125 10.703125 C4.17902344 11.87359375 4.24476562 13.0440625 4.3125 14.25 C4.37050781 15.41015625 4.42851563 16.5703125 4.48828125 17.765625 C5.01711803 21.10819638 5.73772333 22.5497057 8 25 C4.125 23.125 4.125 23.125 3 22 C2.95936168 20.33382885 2.957279 18.66611905 3 17 C2.34 17 1.68 17 1 17 C0.67 11.39 0.34 5.78 0 0 Z " fill="#9CD8CC" transform="translate(70,80)"/>
<path d="M0 0 C0.25 5.625 0.25 5.625 -2 9 C-2.66 9 -3.32 9 -4 9 C-4 8.34 -4 7.68 -4 7 C-4.66 7 -5.32 7 -6 7 C-6 5.02 -6 3.04 -6 1 C-4 0 -4 0 0 0 Z " fill="#46919D" transform="translate(119,80)"/>
<path d="M0 0 C0.78117187 0.46019531 0.78117187 0.46019531 1.578125 0.9296875 C4.61656401 2.27248151 7.46388645 2.6649441 10.75 3.125 C12.50570312 3.37636719 12.50570312 3.37636719 14.296875 3.6328125 C15.63492188 3.81457031 15.63492188 3.81457031 17 4 C17 4.66 17 5.32 17 6 C10.93107371 6.25287193 5.83799592 5.69832609 0 4 C0.33 4.99 0.66 5.98 1 7 C0.34 7 -0.32 7 -1 7 C-1.33 5.68 -1.66 4.36 -2 3 C-1.34 3 -0.68 3 0 3 C0 2.01 0 1.02 0 0 Z " fill="#57A99D" transform="translate(79,98)"/>
<path d="M0 0 C6.0546875 -0.1953125 6.0546875 -0.1953125 8 0 C8.66 0.66 9.32 1.32 10 2 C9.625 4.125 9.625 4.125 9 6 C7.35 5.67 5.7 5.34 4 5 C4 4.34 4 3.68 4 3 C2.35 3 0.7 3 -1 3 C-0.67 2.01 -0.34 1.02 0 0 Z " fill="#3DA18B" transform="translate(106,73)"/>
<path d="M0 0 C1.2065625 0.0309375 1.2065625 0.0309375 2.4375 0.0625 C1.95667969 0.57296875 1.47585937 1.0834375 0.98046875 1.609375 C-1.07987494 4.88506066 -1.07210774 7.47002719 -1.25 11.3125 C-1.34861328 13.20742188 -1.34861328 13.20742188 -1.44921875 15.140625 C-1.48660156 16.10484375 -1.52398437 17.0690625 -1.5625 18.0625 C-4.03849533 14.348507 -3.79989325 12.35532091 -3.75 7.9375 C-3.74355469 6.67679688 -3.73710938 5.41609375 -3.73046875 4.1171875 C-3.5087819 0.08558005 -3.5087819 0.08558005 0 0 Z " fill="#FCE4DA" transform="translate(65.5625,48.9375)"/>
<path d="M0 0 C0.66 0 1.32 0 2 0 C2 0.66 2 1.32 2 2 C2.66 2 3.32 2 4 2 C3.67 2.99 3.34 3.98 3 5 C2.38125 5.268125 1.7625 5.53625 1.125 5.8125 C-1.92295549 7.51576924 -2.64076848 9.8737675 -4 13 C-4.33 13 -4.66 13 -5 13 C-5.49318182 6.58863636 -5.49318182 6.58863636 -3.0625 3.6875 C-2.381875 3.130625 -1.70125 2.57375 -1 2 C-0.67 1.34 -0.34 0.68 0 0 Z " fill="#5898B3" transform="translate(113,87)"/>
<path d="M0 0 C0.75 1.6875 0.75 1.6875 1 4 C-1.16934802 7.29419514 -3.57098675 10.00896005 -7 12 C-7.99 11.67 -8.98 11.34 -10 11 C-9.21625 10.2575 -8.4325 9.515 -7.625 8.75 C-5.37857225 6.3965995 -4.36627232 4.83013552 -3 2 C-2.01 1.34 -1.02 0.68 0 0 Z " fill="#88C6A5" transform="translate(92,67)"/>
<path d="M0 0 C5.41538462 -0.36923077 5.41538462 -0.36923077 8.375 1.5 C8.91125 1.995 9.4475 2.49 10 3 C9.67 3.66 9.34 4.32 9 5 C6.69 5 4.38 5 2 5 C1.34 3.35 0.68 1.7 0 0 Z " fill="#429A87" transform="translate(79,102)"/>
<path d="M0 0 C0.33 0.66 0.66 1.32 1 2 C0.0409375 2.7734375 0.0409375 2.7734375 -0.9375 3.5625 C-3.55791681 6.65935623 -3.69389817 9.02067623 -4 13 C-5.5 11.875 -5.5 11.875 -7 10 C-7.1875 6.8125 -7.1875 6.8125 -7 4 C-4.69 2.68 -2.38 1.36 0 0 Z " fill="#3C90A2" transform="translate(112,87)"/>
<path d="M0 0 C1.98 0 3.96 0 6 0 C6 1.65 6 3.3 6 5 C4.125 6.0625 4.125 6.0625 2 7 C1.34 6.67 0.68 6.34 0 6 C0 4.02 0 2.04 0 0 Z " fill="#F6FCFD" transform="translate(105,80)"/>
<path d="M0 0 C3.63 0 7.26 0 11 0 C9.02 0.99 9.02 0.99 7 2 C5.26574227 4.03317007 5.26574227 4.03317007 4 6 C3.01 5.67 2.02 5.34 1 5 C1 4.34 1 3.68 1 3 C0.01 2.67 -0.98 2.34 -2 2 C-1.34 2 -0.68 2 0 2 C0 1.34 0 0.68 0 0 Z " fill="#C1C88D" transform="translate(69,75)"/>
<path d="M0 0 C0.33 0 0.66 0 1 0 C1.02712066 1.43739513 1.04645067 2.87493863 1.0625 4.3125 C1.07410156 5.11300781 1.08570312 5.91351563 1.09765625 6.73828125 C1 9 1 9 0 12 C-0.66 12 -1.32 12 -2 12 C-2 12.66 -2 13.32 -2 14 C-2.66 14 -3.32 14 -4 14 C-3.14925373 5.49253731 -3.14925373 5.49253731 -1 2 C-0.67 1.34 -0.34 0.68 0 0 Z " fill="#B5D8BC" transform="translate(95,60)"/>
<path d="M0 0 C0.66 0.33 1.32 0.66 2 1 C2 3.64 2 6.28 2 9 C0.68 9.33 -0.64 9.66 -2 10 C-2.1953125 3.9453125 -2.1953125 3.9453125 -2 2 C-1.34 1.34 -0.68 0.68 0 0 Z " fill="#EC7F50" transform="translate(58,57)"/>
<path d="M0 0 C0 3.26795703 -0.57850516 5.0821948 -2 8 C-2.99 8.66 -3.98 9.32 -5 10 C-5.99 9.67 -6.98 9.34 -8 9 C-6.06273348 4.41173718 -4.51135667 2.19471406 0 0 Z " fill="#A8C993" transform="translate(94,60)"/>
<path d="M0 0 C0.99 0 1.98 0 3 0 C1.84826645 2.46800047 0.95216435 4.04783565 -1 6 C-1.46290221 8.66242821 -1.46290221 8.66242821 -1.625 11.625 C-1.69976562 12.62789062 -1.77453125 13.63078125 -1.8515625 14.6640625 C-1.90054688 15.43492188 -1.94953125 16.20578125 -2 17 C-3.92837425 13.3977969 -4.48657288 11.13586947 -4 7 C-2.84406808 4.50218189 -1.49052733 2.32894896 0 0 Z " fill="#80CDC3" transform="translate(99,72)"/>
<path d="M0 0 C0.66 0.33 1.32 0.66 2 1 C2.25 3.8125 2.25 3.8125 2 7 C0 8.875 0 8.875 -2 10 C-2.66 8.02 -3.32 6.04 -4 4 C-2.68 3.34 -1.36 2.68 0 2 C0 1.34 0 0.68 0 0 Z " fill="#F0B76B" transform="translate(93,44)"/>
<path d="M0 0 C0.33 0.66 0.66 1.32 1 2 C-0.8125 4.5 -0.8125 4.5 -3 7 C-3.99 7 -4.98 7 -6 7 C-4.52307692 2.32307692 -4.52307692 2.32307692 -1.875 0.6875 C-1.25625 0.460625 -0.6375 0.23375 0 0 Z " fill="#C3DBE9" transform="translate(116,91)"/>
<path d="M0 0 C3.96 0 7.92 0 12 0 C7.859724 3.105207 6.90248464 3.63945452 2 3 C1.34 2.01 0.68 1.02 0 0 Z " fill="#F6F3DE" transform="translate(70,71)"/>
<path d="M0 0 C2.475 0.495 2.475 0.495 5 1 C4.67 2.98 4.34 4.96 4 7 C2 5.75 2 5.75 0 4 C0 2.68 0 1.36 0 0 Z " fill="#48B4A7" transform="translate(74,97)"/>
<path d="M0 0 C2.31 0.66 4.62 1.32 7 2 C6.01 3.485 6.01 3.485 5 5 C4.01 5 3.02 5 2 5 C1.67 5.66 1.34 6.32 1 7 C-0.32 6.34 -1.64 5.68 -3 5 C-1.68 4.34 -0.36 3.68 1 3 C0.67 2.01 0.34 1.02 0 0 Z " fill="#4D9898" transform="translate(103,86)"/>
<path d="M0 0 C3.3 0 6.6 0 10 0 C10 0.33 10 0.66 10 1 C9.030625 1.12375 8.06125 1.2475 7.0625 1.375 C5.5465625 1.684375 5.5465625 1.684375 4 2 C3.67 2.66 3.34 3.32 3 4 C1.35 4 -0.3 4 -2 4 C-1.34 2.68 -0.68 1.36 0 0 Z " fill="#44B7A4" transform="translate(102,72)"/>
<path d="M0 0 C0.66 0 1.32 0 2 0 C2 1.32 2 2.64 2 4 C0.02 4.99 -1.96 5.98 -4 7 C-4 5.35 -4 3.7 -4 2 C-3.01 2 -2.02 2 -1 2 C-0.67 1.34 -0.34 0.68 0 0 Z " fill="#C6C782" transform="translate(94,56)"/>
<path d="M0 0 C0.66 0.33 1.32 0.66 2 1 C2 2.32 2 3.64 2 5 C0.35 5.66 -1.3 6.32 -3 7 C-3 3 -3 3 -1.5 1.25 C-1.005 0.8375 -0.51 0.425 0 0 Z " fill="#83C5A4" transform="translate(76,81)"/>
<path d="M0 0 C0.66 0 1.32 0 2 0 C2 0.66 2 1.32 2 2 C2.66 2 3.32 2 4 2 C3.67 2.99 3.34 3.98 3 5 C1.35 5 -0.3 5 -2 5 C-1.34 3.35 -0.68 1.7 0 0 Z " fill="#4D94AF" transform="translate(113,87)"/>
<path d="M0 0 C2.0625 0.4375 2.0625 0.4375 4 1 C3.01 1.66 2.02 2.32 1 3 C0.42251197 4.96361864 0.42251197 4.96361864 0.3125 7.125 C0.209375 8.40375 0.10625 9.6825 0 11 C-0.33 11 -0.66 11 -1 11 C-1.02688151 9.35425434 -1.04634123 7.70838587 -1.0625 6.0625 C-1.07410156 5.14597656 -1.08570312 4.22945313 -1.09765625 3.28515625 C-1 1 -1 1 0 0 Z " fill="#E1F6F0" transform="translate(81,80)"/>
<path d="M0 0 C0.99 0.495 0.99 0.495 2 1 C1.01 1.495 1.01 1.495 0 2 C0 1.34 0 0.68 0 0 Z M-4 2 C-1.03 2.495 -1.03 2.495 2 3 C2 3.66 2 4.32 2 5 C0.35 5 -1.3 5 -3 5 C-3.33 4.01 -3.66 3.02 -4 2 Z " fill="#3E88A9" transform="translate(99,102)"/>
<path d="M0 0 C1.98 0 3.96 0 6 0 C4.515 1.98 4.515 1.98 3 4 C1.35 3.67 -0.3 3.34 -2 3 C-1.34 2.67 -0.68 2.34 0 2 C0 1.34 0 0.68 0 0 Z " fill="#D8C87C" transform="translate(69,75)"/>
<path d="M0 0 C1.98 0 3.96 0 6 0 C6 0.66 6 1.32 6 2 C3.36 2.66 0.72 3.32 -2 4 C-1.34 2.68 -0.68 1.36 0 0 Z " fill="#75C0B2" transform="translate(104,76)"/>
</svg>
